PathFileType	4	(X/Y/Z)	/Users/itak/Documents/Research/Walk-IL/dataset/trc/00498_00183.trc
DataRate	CameraRate	NumFrames	NumMarkers	Units	OrigDataRate	OrigDataStartFrame	OrigNumFrames
100.000000	100.000000	4	56	mm	100.000000	338	677
Frame#	Time	RPSI			LPSI			L3			STRN			T10			C7			CLAV			RBAK			LBAK			LSHO			LUPA			LAEL			LAOL			LWTS			LWPS			LFRA			LIFD			LHPS			LHTS			RSHO			RUPA			RAEL			RAOL			RWTS			RWPS			RFRA			RIFD			RHTS			RHPS			RBHD			LFHD			RFHD			LBHD			LHIP			RHIP			RASI			LASI			LKNE			LTHI			LANK			LTIP			LTOE			LMT1			LMT5			LHEE			RKNE			RTHI			RANK			RTIP			RTOE			RMT1			RMT5			RHEE			*53			*54			*55			
		X1	Y1	Z1	X2	Y2	Z2	X3	Y3	Z3	X4	Y4	Z4	X5	Y5	Z5	X6	Y6	Z6	X7	Y7	Z7	X8	Y8	Z8	X9	Y9	Z9	X10	Y10	Z10	X11	Y11	Z11	X12	Y12	Z12	X13	Y13	Z13	X14	Y14	Z14	X15	Y15	Z15	X16	Y16	Z16	X17	Y17	Z17	X18	Y18	Z18	X19	Y19	Z19	X20	Y20	Z20	X21	Y21	Z21	X22	Y22	Z22	X23	Y23	Z23	X24	Y24	Z24	X25	Y25	Z25	X26	Y26	Z26	X27	Y27	Z27	X28	Y28	Z28	X29	Y29	Z29	X30	Y30	Z30	X31	Y31	Z31	X32	Y32	Z32	X33	Y33	Z33	X34	Y34	Z34	X35	Y35	Z35	X36	Y36	Z36	X37	Y37	Z37	X38	Y38	Z38	X39	Y39	Z39	X40	Y40	Z40	X41	Y41	Z41	X42	Y42	Z42	X43	Y43	Z43	X44	Y44	Z44	X45	Y45	Z45	X46	Y46	Z46	X47	Y47	Z47	X48	Y48	Z48	X49	Y49	Z49	X50	Y50	Z50	X51	Y51	Z51	X52	Y52	Z52	X53	Y53	Z53	X54	Y54	Z54	X55	Y55	Z55	X56	Y56	Z56	

339	3.38	-530.4497680664062	956.5257568359375	-129.9581146240234	-467.9479370117188	954.0590209960938	-237.2685241699219	-505.5289916992188	1024.023315429688	-188.212646484375	-306.70166015625	1181.543334960938	-89.93157958984375	-516.9597778320312	1129.101196289062	-188.5614166259766	-473.7216491699219	1358.159790039062	-166.2420806884766	-336.3780212402344	1277.213500976562	-104.9138031005859	-556.9481201171875	1238.574462890625	-109.237678527832	-461.9893493652344	1304.623657226562	-257.4871520996094	-343.0366821289062	1346.154663085938	-284.6104431152344	-329.0827331542969	1219.499755859375	-344.0833435058594	-315.1887817382812	1009.272277832031	-365.5588684082031	-405.7825012207031	1001.587951660156	-334.8053894042969	-243.6140289306641	821.173583984375	-300.381103515625	-309.355224609375	784.7929077148438	-356.1664733886719	-299.4987487792969	933.9186401367188	-360.1547546386719	-247.8051910400391	664.6171264648438	-279.6427612304688	-289.6024780273438	730.6535034179688	-342.0155944824219	-232.6550445556641	741.6642456054688	-311.883544921875	-484.8803100585938	1350.60009765625	-7.545218944549561	-524.7959594726562	1283.3916015625	37.52965927124023	-540.2362670898438	1015.034423828125	78.49602508544922	-577.1965942382812	1000.6943359375	25.0049934387207	-437.6084289550781	809.4196166992188	73.47743988037109	-524.9664306640625	790.3424682617188	95.79474639892578	-538.6802978515625	960.2198486328125	85.65521240234375	-444.8777770996094	649.0928955078125	70.68890380859375	-435.5206909179688	714.0023803710938	98.12544250488281	-506.7181701660156	715.488037109375	101.0266418457031	-471.2709350585938	1510.637329101562	-77.04640197753906	-298.2491760253906	1573.578735351562	-155.9765625	-353.6534118652344	1573.162719726562	-41.22810745239258	-415.2962036132812	1506.003784179688	-225.7492370605469	-303.8602600097656	882.291259765625	-289.9936218261719	-512.43212890625	851.0472412109375	25.20183944702148	-387.5865478515625	892.0590209960938	26.31868171691895	-267.8442077636719	915.526123046875	-183.3515472412109	-216.3623657226562	480.4279479980469	-192.1268615722656	-236.8123168945312	630.8323364257812	-236.3394470214844	-221.7206573486328	42.8216438293457	-181.8780212402344	-205.1971130371094	325.7967529296875	-192.1783905029297	-77.94313812255859	52.70895004272461	-38.55195617675781	-158.3391418457031	50.00093841552734	-43.53342437744141	-122.8771286010742	43.83388519287109	-140.1526947021484	-289.6749572753906	43.60533142089844	-144.9458770751953	-535.8379516601562	472.2005920410156	-48.73381423950195	-495.7066345214844	718.7080688476562	26.25431251525879	-748.1442260742188	105.0055847167969	-188.1461334228516	-576.4358520507812	334.7069396972656	-89.21506500244141	-573.7721557617188	41.61076354980469	-142.6363983154297	-603.7378540039062	56.52958679199219	-204.6300201416016	-665.5550537109375	54.84573745727539	-128.82275390625	-771.8892211914062	123.4557876586914	-252.2275848388672	nan	nan	nan	nan	nan	nan	nan	nan	nan	
340	3.39	-523.3889770507812	957.7049560546875	-128.5869445800781	-460.7944641113281	955.2783813476562	-235.8224945068359	-498.599853515625	1024.99267578125	-186.8901824951172	-299.9313354492188	1182.884155273438	-88.95243835449219	-510.3687438964844	1130.04443359375	-187.3343505859375	-467.4302062988281	1359.199951171875	-165.1753540039062	-329.8479614257812	1278.492797851562	-103.9450759887695	-550.34619140625	1239.512451171875	-107.9866409301758	-455.5973205566406	1305.648681640625	-256.3954162597656	-336.7863159179688	1347.491943359375	-283.5814514160156	-322.4996948242188	1220.907470703125	-343.0924377441406	-307.9190063476562	1010.644165039062	-364.2896423339844	-398.68505859375	1002.845886230469	-333.9161987304688	-236.4347381591797	822.7939453125	-297.8079223632812	-300.6973266601562	786.52001953125	-355.1954650878906	-291.9388427734375	935.376220703125	-358.6643676757812	-240.3159942626953	666.1788330078125	-277.7987365722656	-281.1650695800781	732.077392578125	-340.7147521972656	-224.8370208740234	743.355712890625	-309.5110778808594	-478.2537231445312	1351.7197265625	-6.473254203796387	-518.020751953125	1284.567749023438	38.77709197998047	-533.3438720703125	1016.187133789062	79.43961334228516	-570.283203125	1001.971069335938	25.90684509277344	-430.880126953125	810.5164794921875	74.531005859375	-518.2734985351562	791.384765625	96.58830261230469	-531.855224609375	961.4022216796875	86.55393981933594	-438.0741882324219	650.19580078125	71.17824554443359	-428.8116455078125	715.020263671875	98.88553619384766	-500.0230102539062	716.4862060546875	101.5999603271484	-465.4742736816406	1511.6650390625	-76.20634460449219	-292.5360107421875	1574.957397460938	-154.9818267822266	-348.0530700683594	1574.485473632812	-40.31361770629883	-409.2932739257812	1507.05712890625	-224.8528900146484	-296.6563415527344	883.5606689453125	-288.5741882324219	-505.2740783691406	852.2977294921875	26.84937858581543	-380.5271911621094	893.2072143554688	27.52349090576172	-260.6169738769531	916.7254028320312	-182.0368499755859	-212.5081024169922	480.3040466308594	-190.9398651123047	-231.4617156982422	631.0614624023438	-235.0081024169922	-221.5423126220703	42.97197341918945	-181.5358428955078	-202.6083831787109	325.5819702148438	-191.1244812011719	-77.58671569824219	51.13813400268555	-37.6061897277832	-158.1966552734375	49.26483154296875	-43.12706756591797	-122.682373046875	43.84017944335938	-139.5430755615234	-289.5076904296875	43.6662712097168	-144.8202514648438	-527.3211669921875	473.1011962890625	-45.96475982666016	-488.4589233398438	719.8126220703125	28.21845436096191	-745.2079467773438	109.2444763183594	-186.2604675292969	-569.7152709960938	335.9908447265625	-85.73088073730469	-573.9209594726562	41.6242561340332	-142.4699096679688	-602.1724243164062	57.1057014465332	-203.6710205078125	-664.0866088867188	55.42951202392578	-127.9625549316406	-768.1342163085938	129.4255065917969	-250.1060485839844	nan	nan	nan	nan	nan	nan	nan	nan	nan	
341	3.4	-516.382080078125	958.7763671875	-127.320686340332	-453.6503601074219	956.4024047851562	-234.4710845947266	-491.6322937011719	1025.921508789062	-185.660400390625	-293.2050170898438	1184.171142578125	-87.98625183105469	-503.7438659667969	1130.91943359375	-186.1878051757812	-461.1803588867188	1360.179565429688	-164.1386566162109	-323.3665466308594	1279.708618164062	-102.9767379760742	-543.8060302734375	1240.369262695312	-106.8118362426758	-449.22802734375	1306.621948242188	-255.3437347412109	-330.5533752441406	1348.781982421875	-282.5594482421875	-315.9456481933594	1222.276733398438	-342.1301879882812	-300.7088012695312	1011.991027832031	-363.0880432128906	-391.6492309570312	1004.066772460938	-333.0972900390625	-229.2632904052734	824.4354858398438	-295.3296203613281	-292.1195373535156	788.1439819335938	-354.1761474609375	-284.4487915039062	936.7932739257812	-357.2478332519531	-232.7247161865234	667.7732543945312	-275.955810546875	-272.6615295410156	733.5416259765625	-339.4314880371094	-217.0227966308594	745.0784301757812	-307.1674499511719	-471.7201843261719	1352.744018554688	-5.432045459747314	-511.3411560058594	1285.628051757812	39.94718551635742	-526.4298706054688	1017.245483398438	80.42146301269531	-563.3909301757812	1003.102905273438	26.89215278625488	-423.9872436523438	811.6068725585938	75.58255767822266	-511.3858032226562	792.349365234375	97.48113250732422	-524.9598388671875	962.4953002929688	87.51338958740234	-430.9828796386719	651.2907104492188	71.70701599121094	-421.8379211425781	716.0386962890625	99.65716552734375	-493.0616149902344	717.4194946289062	102.2677307128906	-459.7208862304688	1512.61669921875	-75.34434509277344	-286.866943359375	1576.275024414062	-153.9723358154297	-342.4903869628906	1575.731079101562	-39.37606048583984	-403.3591003417969	1508.067993164062	-223.9432220458984	-289.4466552734375	884.7755737304688	-287.1924133300781	-498.1978759765625	853.4927978515625	28.36980819702148	-373.5686950683594	894.3622436523438	28.72169876098633	-253.4225921630859	917.8482666015625	-180.7149658203125	-208.8712005615234	480.087646484375	-189.8440399169922	-226.3142395019531	631.1605834960938	-233.7621612548828	-221.3569030761719	43.13078689575195	-181.1657104492188	-200.1494598388672	325.304443359375	-190.1322021484375	-77.25838470458984	49.54867935180664	-36.62774276733398	-158.0712432861328	48.51852798461914	-42.70033645629883	-122.4965209960938	43.84756851196289	-138.8980102539062	-289.3526916503906	43.69831466674805	-144.6951751708984	-518.5889282226562	473.8666687011719	-42.82107543945312	-481.2217712402344	720.8985595703125	30.2694091796875	-742.0419311523438	113.6579437255859	-184.2102966308594	-562.7821044921875	337.2491760253906	-81.96661376953125	-574.0082397460938	41.61663436889648	-142.2532958984375	-600.5027465820312	57.73303985595703	-202.6349487304688	-662.5667114257812	56.12870025634766	-127.0237655639648	-764.068115234375	135.5811614990234	-247.7806701660156	nan	nan	nan	nan	nan	nan	nan	nan	nan	
342	3.41	-509.4583129882812	959.7157592773438	-126.1438140869141	-446.5445556640625	957.4271240234375	-233.2035369873047	-484.6677551269531	1026.790405273438	-184.5069885253906	-286.5419006347656	1185.38818359375	-87.02608489990234	-497.1034851074219	1131.711181640625	-185.1011505126953	-454.9799194335938	1361.087036132812	-163.1305694580078	-316.9486083984375	1280.846557617188	-102.0060195922852	-537.3352661132812	1241.137939453125	-105.7123870849609	-442.8943786621094	1307.528930664062	-254.3303070068359	-324.3487854003906	1350.003784179688	-281.5426635742188	-309.4233093261719	1223.583251953125	-341.1876525878906	-293.5556030273438	1013.292236328125	-361.9495544433594	-384.671630859375	1005.221374511719	-332.3352355957031	-222.0997161865234	826.0792236328125	-292.9526672363281	-283.65673828125	789.6342163085938	-353.0964660644531	-277.0258483886719	938.14892578125	-355.9033203125	-225.0310363769531	669.3800659179688	-274.1071472167969	-264.1101989746094	735.0269775390625	-338.1583251953125	-209.2252960205078	746.8192749023438	-304.8357543945312	-465.2957763671875	1353.66357421875	-4.418854236602783	-504.7760620117188	1286.560791015625	41.03860473632812	-519.5252685546875	1018.194641113281	81.43404388427734	-556.531982421875	1004.071533203125	27.94122505187988	-416.9426879882812	812.6823120117188	76.64223480224609	-504.3222045898438	793.2258911132812	98.47133636474609	-518.0220336914062	963.4832153320312	88.52418518066406	-423.6114807128906	652.3682861328125	72.31851196289062	-414.6171875	717.054931640625	100.4703750610352	-485.8517456054688	718.2830200195312	103.0483551025391	-454.0145568847656	1513.475341796875	-74.46446990966797	-281.2441101074219	1577.518188476562	-152.9441833496094	-336.97265625	1576.885864257812	-38.41049194335938	-397.4951477050781	1509.023681640625	-223.0196685791016	-282.2640380859375	885.92041015625	-285.8423156738281	-491.2824401855469	854.5794067382812	29.74086952209473	-366.72998046875	895.4943237304688	29.91872787475586	-246.2845001220703	918.8798217773438	-179.3842620849609	-205.3965759277344	479.8151550292969	-188.828369140625	-221.3323211669922	631.1768188476562	-232.5772857666016	-221.1574249267578	43.29534530639648	-180.7775726318359	-197.7763671875	324.9879455566406	-189.1990051269531	-76.94422912597656	47.94072341918945	-35.64859008789062	-157.949951171875	47.77175903320312	-42.26590347290039	-122.3184280395508	43.83882904052734	-138.2544097900391	-289.2081604003906	43.71195602416992	-144.5709075927734	-509.662109375	474.4667053222656	-39.29061508178711	-473.9611206054688	721.9239501953125	32.34975433349609	-738.6519165039062	118.2623901367188	-182.0032196044922	-555.6437377929688	338.4789123535156	-77.94972229003906	-573.95703125	41.56694412231445	-141.9629821777344	-598.7426147460938	58.48140335083008	-201.5242004394531	-660.9966430664062	57.00405120849609	-126.0011901855469	-759.704833984375	141.9232177734375	-245.2459869384766	nan	nan	nan	nan	nan	nan	nan	nan	nan	
